# generated from PmQm by Jehee Lee
:FULLY-SPECIFIED
:DEGREES
49
root -63.38828526 38.5239 -104.25574 -48.86362712 87.46192995 -51.49217779
RightUpLeg 6.690847428 3.559537153 1.474521586
RightLeg 23.85196449 0 0
RightFoot -15.20643374 8.766287124 1.800365187
RightToes 2.32829e-010 -1.59028e-015 9.93923e-017
Spine -7.27081 4.421 8.4239
Spine1 12.5873 5.89998 -6.94005
HEad -14.7282 -4.52813 3.50139
LeftShoulder1 9.93923e-017 0 1.22299e-017
LeftArm -5.35262 52.9818 -65.2536
LeftForeArm -3.78935 -2.97531 -6.41259
LeftHand 1.04083 7.51032 -4.45414
RightShoulder 1.98785e-016 -4.96962e-017 1.55301e-017
RightArm 20.5888 -18.0628 82.7226
RightForeArm -45.7875 26.5491 -24.2881
RightHand 1.17628 -10.3449 -6.32939
LeftUpLeg -31.2300666 -2.409818557 2.306475581
LeftLeg 10.84951756 0 0
LeftFoot 3.277202294 -5.556104543 -4.438954808
LeftToes 8.82235e-011 9.04645e-011 1.87288e-011
50
root -61.73739157 38.53096787 -104.5269514 7.096325181 88.3404321 4.397465933
RightUpLeg 4.959276814 1.475570664 -2.91366515
RightLeg 30.22312993 0 0
RightFoot -7.38712086 9.613233454 1.165465823
RightToes 2.32829e-010 -1.59028e-015 9.93923e-017
Spine -7.116225827 3.579964986 5.001218616
Spine1 11.77710382 5.209368343 -6.985069972
HEad -13.77289163 -4.280704478 4.043060602
LeftShoulder1 9.93923e-017 0 1.22299e-017
LeftArm -6.771345181 51.85407737 -66.40127214
LeftForeArm -4.66448234 -2.899305931 -6.399836341
LeftHand 1.02661 7.3694 -4.41701
RightShoulder 1.98785e-016 -4.96962e-017 1.55301e-017
RightArm 24.49736807 -21.70061198 85.22052524
RightForeArm -48.41120236 24.4836114 -22.94891294
RightHand 1.19146 -10.4042 -6.50393
LeftUpLeg -30.16854742 -2.769300987 0.003785038959
LeftLeg 13.85988782 0 0
LeftFoot 3.548353708 -5.537090119 -3.23988792
LeftToes 8.82235e-011 9.04645e-011 1.87288e-011
51
root -60.2364565 38.50693155 -104.7279845 69.58767424 87.76299496 67.02683532
RightUpLeg 1.46938623 0.1731128627 -6.743564807
RightLeg 39.75265195 0 0
RightFoot 3.05966151 9.210031748 -2.718091585
RightToes 2.32829e-010 -1.59028e-015 9.93923e-017
Spine -6.07322973 2.377540532 1.69750577
Spine1 10.66439596 4.048946918 -7.164795855
HEad -13.14278575 -3.918634059 4.274387717
LeftShoulder1 9.93923e-017 0 1.22299e-017
LeftArm -7.211159954 48.95862569 -68.25646929
LeftForeArm -5.618254136 -3.172893866 -6.578071575
LeftHand 1.0097 7.20765 -5.05441
RightShoulder 1.98785e-016 -4.96962e-017 1.55301e-017
RightArm 28.03066012 -25.88977037 87.90806854
RightForeArm -51.86194915 22.11632745 -20.82756746
RightHand 1.16096 -10.3732 -5.78301
LeftUpLeg -29.19231141 -2.825312164 -2.205335917
LeftLeg 18.37853952 0 0
LeftFoot 0.5022405811 -6.925072085 -1.886157435
LeftToes 8.82235e-011 9.04645e-011 1.87288e-011
52
root -58.8639321 38.48040014 -104.8846167 80.6145852 86.37300988 78.35091767
RightUpLeg -2.906571714 0.01790544707 -8.293870243
RightLeg 49.05028339 -0.6765659485 -2.864235985
RightFoot 12.99433394 9.387979833 -1.805816896
RightToes 2.32829e-010 -1.59028e-015 9.93923e-017
Spine -5.142321658 1.752985701 -0.8243976512
Spine1 10.45085214 3.327710237 -7.501858327
HEad -12.97509836 -3.45828024 3.843221265
LeftShoulder1 9.93923e-017 0 1.22299e-017
LeftArm -6.39718661 44.35401076 -70.78880386
LeftForeArm -7.224356203 -3.816844821 -6.927473584
LeftHand 0.992905 7.03592 -5.03757
RightShoulder 1.98785e-016 -4.96962e-017 1.55301e-017
RightArm 26.37686244 -30.10209174 89.4715443
RightForeArm -50.5587284 20.74354785 -16.03337121
RightHand 1.09086 -10.2491 -4.27313
LeftUpLeg -27.80985656 -2.941707809 -3.574434364
LeftLeg 22.55022592 0 0
LeftFoot -3.024155663 -7.308957765 -0.7863065236
LeftToes 8.82235e-011 9.04645e-011 1.87288e-011
53
root -57.47535652 38.58214629 -105.0099755 73.76590762 85.44311107 71.88376025
RightUpLeg -7.501766338 0.7625371896 -8.806737361
RightLeg 56.01681691 -0.9573943101 -6.300554704
RightFoot 17.10633309 8.163450341 0.8879335225
RightToes 2.32829e-010 -1.59028e-015 9.93923e-017
Spine -4.95932049 1.605663936 -2.653181145
Spine1 10.93134927 2.955867306 -7.438221672
HEad -12.65783726 -2.701492276 2.973103161
LeftShoulder1 9.93923e-017 0 1.22299e-017
LeftArm -4.851108899 39.55089389 -73.36887423
LeftForeArm -10.11428065 -5.064490297 -7.065699791
LeftHand 0.970123 6.82072 -4.29005
RightShoulder 1.98785e-016 -4.96962e-017 1.55301e-017
RightArm 20.6246511 -34.09813635 89.8191467
RightForeArm -43.36041459 19.73561349 -9.223474288
RightHand 1.03939 -10.2002 -2.94224
LeftUpLeg -25.44740085 -3.061997043 -4.192114345
LeftLeg 24.6592559 0 0
LeftFoot -5.059981797 -6.438676567 -0.445167586
LeftToes 8.82235e-011 9.04645e-011 1.87288e-011
54
root -55.96467589 38.83183829 -105.1252542 70.11922848 85.51619039 68.6218481
RightUpLeg -11.45436461 0.9251822412 -7.926666214
RightLeg 59.82895812 0.245086512 -7.453224465
RightFoot 15.08734623 6.89623441 1.926829897
RightToes 2.32829e-010 -1.59028e-015 9.93923e-017
Spine -5.306459969 1.092896776 -3.820850453
Spine1 11.06645596 2.062667216 -6.283636185
HEad -11.64163761 -1.506715095 2.219187758
LeftShoulder1 9.93923e-017 0 1.22299e-017
LeftArm -2.825002283 35.83987993 -75.37274937
LeftForeArm -14.00807674 -8.621684872 -5.803343378
LeftHand 0.942205 6.57551 -3.70458
RightShoulder 1.98785e-016 -4.96962e-017 1.55301e-017
RightArm 18.89162315 -38.1639114 89.79895369
RightForeArm -38.50217185 18.41094486 -4.684044826
RightHand 1.03827 -10.3208 -2.49664
LeftUpLeg -22.10568247 -2.759071835 -4.152300772
LeftLeg 24.74899261 0 0
LeftFoot -6.311423246 -6.387264885 -0.5020818985
LeftToes 8.82235e-011 9.04645e-011 1.87288e-011
55
root -54.4100561 39.11392693 -105.2202588 75.96260869 86.40025646 74.78878134
RightUpLeg -14.84379873 0.2955677462 -6.214843959
RightLeg 60.75675389 2.542236097 -5.660512024
RightFoot 10.5257876 5.955248817 1.715639282
RightToes 2.32829e-010 -1.59028e-015 9.93923e-017
Spine -5.626593273 0.01107477521 -4.77985239
Spine1 10.69500922 0.4964332671 -4.352591639
HEad -10.21256367 -0.07722990964 1.844048193
LeftShoulder1 9.93923e-017 0 1.22299e-017
LeftArm 4.029871804 33.05304626 -76.90620705
LeftForeArm -23.08755667 -14.67838915 -2.160323864
LeftHand 0.92793 6.45217 -3.57146
RightShoulder 1.98785e-016 -4.96962e-017 1.55301e-017
RightArm 20.92229951 -42.58062892 89.43619579
RightForeArm -37.60342559 17.83731527 -3.186553323
RightHand 1.04716 -10.4116 -2.45404
LeftUpLeg -18.43680807 -2.120061725 -3.645924688
LeftLeg 23.86744533 0 0
LeftFoot -7.592082783 -7.774764525 -0.5387531773
LeftToes 8.82235e-011 9.04645e-011 1.87288e-011
